<svg xmlns="http://www.w3.org/2000/svg"  viewBox="0 0 64 64" width="512px" height="512px" baseProfile="basic"><path fill="#f9eede" d="M63,40.716c0,4.805-3.914,8.719-8.719,8.719c-3.613,0-6.002-2.141-7.281-5.435 c-3.333,1.162-8.761,1.744-15,1.744S20.342,45.162,17,44c-1.279,3.332-3.639,5.435-7.281,5.435C4.914,49.435,1,45.521,1,40.716 c0-1.531,0.407-3.042,1.163-4.359C2.23,36.25,7.297,27.88,8.585,24.945c1.908-4.34,3.216-5.628,3.739-5.997 c0.998-0.959,2.306-1.482,3.691-1.482c1.143,0,2.218,0.368,3.119,1.027c3.885-2.645,8.409-4.117,12.865-4.117 c4.447,0,8.845,1.414,12.691,4.011c0.872-0.601,1.908-0.92,2.984-0.92c1.385,0,2.693,0.523,3.691,1.482 c0.533,0.368,1.831,1.657,3.739,5.997c1.279,2.935,6.965,11.896,7.023,11.983l0.058,0.107C62.729,38.197,63,39.427,63,40.716z"/><ellipse cx="20" cy="32.5" fill="#8d6c9f" rx="2" ry="3.5"/><ellipse cx="44" cy="32.5" fill="#8d6c9f" rx="2" ry="3.5"/><path fill="#8d6c9f" d="M35.5,34c-0.552,0-1,0.447-1,1s0.448,1,1,1c0.276,0,0.5,0.225,0.5,0.5 c0,0.242-0.172,0.444-0.401,0.49c-0.015-0.009-0.03-0.019-0.046-0.028c-2.079-1.259-5.036-1.256-7.1-0.001 c-0.017,0.01-0.034,0.021-0.05,0.029C28.173,36.945,28,36.742,28,36.5c0-0.275,0.224-0.5,0.5-0.5c0.552,0,1-0.447,1-1 s-0.448-1-1-1c-1.378,0-2.5,1.121-2.5,2.5s1.122,2.5,2.5,2.5c0.304,0,0.618-0.104,0.99-0.329c1.44-0.876,3.573-0.88,5.025,0.001 C34.883,38.896,35.196,39,35.5,39c1.378,0,2.5-1.121,2.5-2.5S36.878,34,35.5,34z"/><path fill="#8d6c9f" d="M63.162,37.203L63.1,37.089c-0.059-0.093-5.925-9.344-7.252-12.366 c-1.97-4.486-3.312-5.81-3.856-6.189C50.962,17.544,49.614,17,48.182,17c-1.115,0-2.177,0.333-3.079,0.946 c-3.977-2.677-8.511-4.14-13.103-4.14c-4.602,0-9.269,1.522-13.282,4.254C17.786,17.381,16.676,17,15.5,17 c-1.432,0-2.781,0.544-3.81,1.533c-0.544,0.38-1.886,1.703-3.855,6.189c-1.331,3.031-6.566,11.672-6.63,11.776 C0.417,37.862,0,39.418,0,41c0,4.963,4.038,9,9,9c3.758,0,7.07-2.324,8.392-5.761c3.443,1.205,8.168,1.955,14.608,1.955 c6.441,0,11.166-0.751,14.609-1.956C47.932,47.642,51.269,50,55,50c4.962,0,9-4.037,9-9C64,39.675,63.718,38.397,63.162,37.203z M55,48c-2.912,0-5.507-1.851-6.528-4.511c5.275-2.444,6.723-6.157,6.723-9.489c0-3.318-1.419-7-3.996-10.368 c-0.401-0.524-1.15-0.624-1.675-0.224C49,23.81,48.9,24.56,49.301,25.083c2.26,2.954,3.504,6.12,3.504,8.917 c0,1.892-0.622,3.431-1.688,4.685C50.476,38.268,49.547,38,48.5,38c-1.933,0-3.5,0.895-3.5,2c0,0.711,0.654,1.332,1.633,1.686 C42.538,43.33,37.015,43.806,32,43.806s-10.538-0.476-14.633-2.119C18.346,41.332,19,40.711,19,40c0-1.105-1.567-2-3.5-2 c-1.047,0-1.976,0.268-2.617,0.685c-1.066-1.254-1.688-2.793-1.688-4.685c0-2.302,0.838-4.848,2.423-7.363 c0.352-0.559,0.184-1.296-0.374-1.647c-0.558-0.353-1.295-0.185-1.647,0.374c-1.825,2.897-2.79,5.884-2.79,8.637 c0,3.331,1.446,7.042,6.717,9.487C14.501,46.173,11.933,48,9,48c-3.86,0-7-3.141-7-7c0-1.23,0.324-2.44,0.925-3.481 c0.218-0.359,5.357-8.841,6.74-11.991c1.945-4.431,3.125-5.321,3.113-5.321c0,0,0,0,0,0l0.247-0.181 c1.031-1.031,2.655-1.247,3.95-0.67c-0.531,0.431-1.05,0.88-1.549,1.356c-0.478,0.455-0.496,1.211-0.041,1.688 c0.235,0.246,0.549,0.37,0.865,0.37c0.296,0,0.593-0.109,0.824-0.33c4.165-3.969,9.605-6.246,14.926-6.246 c5.226,0,10.4,2.1,14.569,5.913c0.487,0.445,1.244,0.41,1.688-0.075c0.445-0.487,0.412-1.243-0.075-1.688 c-0.416-0.38-0.85-0.727-1.284-1.075c1.26-0.473,2.779-0.223,3.759,0.757l0.189,0.147c0.012,0.009,1.197,0.86,3.17,5.354 c1.346,3.066,6.812,11.714,7.358,12.577C61.79,39.016,62,39.989,62,41C62,44.859,58.86,48,55,48z"/><g><path fill="#8d6c9f" d="M32,10.615c0.505,0,0.913-0.409,0.913-0.913V7.875c0-0.504-0.408-0.913-0.913-0.913 c-0.505,0-0.913,0.409-0.913,0.913v1.826C31.087,10.205,31.495,10.615,32,10.615z M26.509,10.544 c0.131,0.488,0.631,0.778,1.119,0.646c0.487-0.131,0.776-0.631,0.646-1.119L27.8,8.307c-0.109-0.408-0.478-0.677-0.881-0.677 c-0.079,0-0.158,0.01-0.237,0.032c-0.487,0.131-0.776,0.631-0.646,1.119L26.509,10.544z M40.445,12.878 c0.436,0.251,0.995,0.102,1.247-0.334l0.913-1.581c0.252-0.436,0.102-0.995-0.334-1.247c-0.143-0.083-0.3-0.122-0.456-0.122 c-0.316,0-0.623,0.163-0.792,0.457l-0.913,1.581C39.858,12.066,40.008,12.625,40.445,12.878z M22.306,12.543 c0.253,0.437,0.813,0.586,1.247,0.334c0.437-0.252,0.587-0.811,0.334-1.247l-0.913-1.581c-0.17-0.293-0.476-0.457-0.792-0.457 c-0.155,0-0.312,0.039-0.456,0.122c-0.437,0.252-0.587,0.811-0.334,1.247L22.306,12.543z M36.371,11.19 c0.487,0.131,0.988-0.158,1.119-0.646l0.473-1.764c0.131-0.488-0.159-0.988-0.646-1.119C37.238,7.641,37.158,7.63,37.08,7.63 c-0.403,0-0.772,0.269-0.881,0.677l-0.473,1.764C35.595,10.559,35.885,11.06,36.371,11.19z"/></g></svg>